<svg width="32" height="32" viewBox="0 0 32 32" fill="none" xmlns="http://www.w3.org/2000/svg">
<path d="M22.9996 23H6.72727L4.2402 3.82112C4.19831 3.5907 4.07688 3.3823 3.89708 3.23225C3.71728 3.08219 3.49052 3 3.25633 3H1" stroke="#1A0826" stroke-width="2" stroke-linecap="square" stroke-linejoin="round"/>
<path d="M8 28C9.38071 28 10.5 26.8807 10.5 25.5C10.5 24.1193 9.38071 23 8 23C6.61929 23 5.5 24.1193 5.5 25.5C5.5 26.8807 6.61929 28 8 28Z" stroke="#1A0826" stroke-width="2" stroke-linecap="round" stroke-linejoin="round"/>
<path d="M24 28C25.3807 28 26.5 26.8807 26.5 25.5C26.5 24.1193 25.3807 23 24 23C22.6193 23 21.5 24.1193 21.5 25.5C21.5 26.8807 22.6193 28 24 28Z" stroke="#1A0826" stroke-width="2" stroke-linecap="round" stroke-linejoin="round"/>
<path d="M4.55884 7.03906H26.5644C27.0696 7.03906 27.4954 7.4158 27.557 7.91719L28.7848 17.9172C28.858 18.5133 28.3929 19.0391 27.7923 19.0391H6.05596" stroke="#1A0826" stroke-width="2"/>
<path fill-rule="evenodd" clip-rule="evenodd" d="M12.7275 14.5831L12.9676 16.5391H21.3731L21.0984 14.2993H17.1788L17.1449 14.0214L20.7544 11.4992L20.5133 9.53906H12.1082L12.3832 11.7792H16.3088L16.3434 12.0592L12.7275 14.5831Z" fill="#1A0826"/>
</svg>
