<svg width="32" height="32" viewBox="0 0 32 32" fill="none" xmlns="http://www.w3.org/2000/svg">
<path d="M14.9621 27H3.81949L2.73823 18.3334H13.898L14.9621 27ZM18.5997 18.3334L29.7262 18.3334L30.8095 27L19.6638 27.0001L18.5997 18.3334ZM29.1428 13.6667H18.0267L16.9626 5L28.0595 5L29.1428 13.6667Z" stroke="#1A0826" stroke-width="2"/>
<path d="M12.261 4C12.7662 4 13.192 4.37674 13.2535 4.87813L14.3177 13.5448C14.3909 14.141 13.9258 14.6667 13.3251 14.6667H2.15616C1.65174 14.6667 1.2263 14.291 1.16385 13.7905L0.0825887 5.1238C0.00813457 4.52702 0.473492 4 1.0749 4H12.261Z" fill="#1A0826"/>
</svg>
