<?xml version="1.0" encoding="UTF-8"?>
<svg width="24px" height="22px" viewBox="0 0 24 22" version="1.1" xmlns="http://www.w3.org/2000/svg" xmlns:xlink="http://www.w3.org/1999/xlink">
    <!-- Generator: Sketch 56.2 (81672) - https://sketch.com -->
    <title>Solid/gem</title>
    <desc>Created with Sketch.</desc>
    <defs>
        <path d="M20.2291667,1.33333333 L24,8 L19.7875,8 L16.9041667,1.33333333 L20.2291667,1.33333333 Z M14.8958333,1.33333333 L17.7791667,8 L6.22083333,8 L9.10416667,1.33333333 L14.8958333,1.33333333 Z M3.77083333,1.33333333 L7.09583333,1.33333333 L4.2125,8 L0,8 L3.77083333,1.33333333 Z M0,9.33333333 L4.19583333,9.33333333 L9.32083333,19.8208333 C9.38333333,19.95 9.20833333,20.0666667 9.1125,19.9583333 L0,9.33333333 Z M6.175,9.33333333 L17.825,9.33333333 L12.1166667,22.5916667 C12.075,22.6916667 11.9291667,22.6916667 11.8875,22.5916667 L6.175,9.33333333 Z M14.6791667,19.8208333 L19.8041667,9.33333333 L24,9.33333333 L14.8875,19.9541667 C14.7916667,20.0666667 14.6166667,19.95 14.6791667,19.8208333 L14.6791667,19.8208333 Z" id="path-1"></path>
    </defs>
    <g id="Comps-L" stroke="none" stroke-width="1" fill="none" fill-rule="evenodd">
        <g id="10-1_Sign-In-L" transform="translate(-812.000000, -387.000000)">
            <g id="SIGN-UP" transform="translate(565.000000, 306.000000)">
                <g id="PERKS" transform="translate(64.000000, 80.000000)">
                    <g id="Solid/gem" transform="translate(183.000000, 0.000000)">
                        <mask id="mask-2" fill="white">
                            <use xlink:href="#path-1"></use>
                        </mask>
                        <g id="Mask"></g>
                        <g id="Color/Black" mask="url(#mask-2)" fill="#000000" fill-rule="evenodd">
                            <rect id="Black" x="0" y="0" width="24" height="24"></rect>
                        </g>
                    </g>
                </g>
            </g>
        </g>
    </g>
</svg>