<?xml version="1.0" encoding="UTF-8"?>
<svg width="24px" height="22px" viewBox="0 0 24 22" version="1.1" xmlns="http://www.w3.org/2000/svg" xmlns:xlink="http://www.w3.org/1999/xlink">
    <!-- Generator: Sketch 56.2 (81672) - https://sketch.com -->
    <title>Solid/heart</title>
    <desc>Created with Sketch.</desc>
    <defs>
        <path d="M17.5985294,1.74264706 C15.2558824,1.74264706 13.0588235,3.58235294 12,4.62352941 C10.9411765,3.58235294 8.74411765,1.74264706 6.40147059,1.74264706 C2.39558824,1.74264706 0,4.07647059 0,7.98529412 C0,11.1882353 2.94705882,13.8661765 3.05294118,13.9588235 L11.3029412,21.9352941 C11.6911765,22.3102941 12.3088235,22.3102941 12.6970588,21.9352941 L20.9338235,13.9852941 C21.0529412,13.8661765 24,11.1838235 24,7.98529412 C24,4.07647059 21.6044118,1.74264706 17.5985294,1.74264706 Z" id="path-1"></path>
    </defs>
    <g id="Comps-L" stroke="none" stroke-width="1" fill="none" fill-rule="evenodd">
        <g id="10-1_Sign-In-L" transform="translate(-650.000000, -387.000000)">
            <g id="SIGN-UP" transform="translate(565.000000, 306.000000)">
                <g id="PERKS" transform="translate(64.000000, 80.000000)">
                    <g id="Solid/heart" transform="translate(21.000000, 0.000000)">
                        <mask id="mask-2" fill="white">
                            <use xlink:href="#path-1"></use>
                        </mask>
                        <g id="Mask"></g>
                        <g id="Color/Black" mask="url(#mask-2)" fill="#000000" fill-rule="evenodd">
                            <rect id="Black" x="0" y="0" width="24" height="24"></rect>
                        </g>
                    </g>
                </g>
            </g>
        </g>
    </g>
</svg>