<?xml version="1.0" encoding="UTF-8"?>
<svg width="18px" height="17px" viewBox="0 0 18 17" version="1.1" xmlns="http://www.w3.org/2000/svg" xmlns:xlink="http://www.w3.org/1999/xlink">
    <!-- Generator: Sketch 56.2 (81672) - https://sketch.com -->
    <title>SEARCH</title>
    <desc>Created with Sketch.</desc>
    <defs>
        <path d="M17.7368421,14.6703704 L14.2385965,11.3664717 C14.0807018,11.2173489 13.8666667,11.1345029 13.6421053,11.1345029 L13.0701754,11.1345029 C14.0385965,9.96471735 14.6140351,8.49337232 14.6140351,6.89278752 C14.6140351,3.08518519 11.3473684,0 7.31578947,0 C3.28421053,0 0.0175438596,3.08518519 0.0175438596,6.89278752 C0.0175438596,10.7003899 3.28421053,13.785575 7.31578947,13.785575 C9.01052632,13.785575 10.5684211,13.2421053 11.8070175,12.3274854 L11.8070175,12.8676413 C11.8070175,13.0797271 11.8947368,13.2818713 12.0526316,13.4309942 L15.5508772,16.7348928 C15.8807018,17.0463938 16.4140351,17.0463938 16.7403509,16.7348928 L17.7333333,15.797076 C18.0631579,15.485575 18.0631579,14.9818713 17.7368421,14.6703704 Z M7.31578947,11.1345029 C4.83508772,11.1345029 2.8245614,9.23898635 2.8245614,6.89278752 C2.8245614,4.54990253 4.83157895,2.65107212 7.31578947,2.65107212 C9.79649123,2.65107212 11.8070175,4.54658869 11.8070175,6.89278752 C11.8070175,9.23567251 9.8,11.1345029 7.31578947,11.1345029 Z" id="path-1"></path>
    </defs>
    <g id="Symbols" stroke="none" stroke-width="1" fill="none" fill-rule="evenodd">
        <g id="Header-Comp-L" transform="translate(-924.000000, -82.000000)">
            <g id="HEADER">
                <g id="SEARCH" transform="translate(924.000000, 82.000000)">
                    <g id="Solid/search">
                        <mask id="mask-2" fill="white">
                            <use xlink:href="#path-1"></use>
                        </mask>
                        <g id="Mask"></g>
                        <g id="Color/Black" mask="url(#mask-2)" fill="#000000" fill-rule="evenodd">
                            <rect id="Black" x="0" y="0" width="18" height="17"></rect>
                        </g>
                    </g>
                </g>
            </g>
        </g>
    </g>
</svg>