<?xml version="1.0" encoding="UTF-8"?>
<svg width="19px" height="17px" viewBox="0 0 19 17" version="1.1" xmlns="http://www.w3.org/2000/svg" xmlns:xlink="http://www.w3.org/1999/xlink">
    <!-- Generator: Sketch 56.2 (81672) - https://sketch.com -->
    <title>Solid/shopping-cart</title>
    <desc>Created with Sketch.</desc>
    <defs>
        <path d="M17.420625,10.9948976 L18.9799774,4.13378646 C19.092559,3.63840104 18.7160226,3.16666667 18.2080035,3.16666667 L5.25165278,3.16666667 L4.94930208,1.68855903 C4.87396181,1.32013715 4.54977431,1.05555556 4.17369965,1.05555556 L0.791666667,1.05555556 C0.354435764,1.05555556 0,1.40999132 0,1.84722222 L0,2.375 C0,2.8122309 0.354435764,3.16666667 0.791666667,3.16666667 L3.09683507,3.16666667 L5.4140434,14.4952517 C4.85967882,14.8140625 4.48611111,15.4118368 4.48611111,16.0972222 C4.48611111,17.1174167 5.31313889,17.9444444 6.33333333,17.9444444 C7.35352778,17.9444444 8.18055556,17.1174167 8.18055556,16.0972222 C8.18055556,15.5801979 7.9678941,15.1130816 7.62559722,14.7777778 L14.5410365,14.7777778 C14.1987726,15.1130816 13.9861111,15.5801979 13.9861111,16.0972222 C13.9861111,17.1174167 14.8131389,17.9444444 15.8333333,17.9444444 C16.8535278,17.9444444 17.6805556,17.1174167 17.6805556,16.0972222 C17.6805556,15.3658542 17.2554306,14.7338403 16.6388872,14.4345573 L16.8208715,13.6337865 C16.9334531,13.138401 16.5569167,12.6666667 16.0488976,12.6666667 L7.1948316,12.6666667 L6.9789375,11.6111111 L16.648651,11.6111111 C17.0182934,11.6111111 17.3387205,11.3553368 17.420625,10.9948976 Z" id="path-1"></path>
    </defs>
    <g id="Symbols" stroke="none" stroke-width="1" fill="none" fill-rule="evenodd">
        <g id="Header-Comp-L" transform="translate(-1066.000000, -82.000000)">
            <g id="HEADER">
                <g transform="translate(0.000000, 20.000000)" id="Solid/shopping-cart">
                    <g transform="translate(1066.000000, 61.000000)">
                        <mask id="mask-2" fill="white">
                            <use xlink:href="#path-1"></use>
                        </mask>
                        <g id="Mask"></g>
                        <g id="Color/Black" mask="url(#mask-2)" fill="#000000" fill-rule="evenodd">
                            <rect id="Black" x="0" y="0" width="19" height="19"></rect>
                        </g>
                    </g>
                </g>
            </g>
        </g>
    </g>
</svg>