<?xml version="1.0" encoding="UTF-8"?>
<svg width="24px" height="20px" viewBox="0 0 24 20" version="1.1" xmlns="http://www.w3.org/2000/svg" xmlns:xlink="http://www.w3.org/1999/xlink">
    <!-- Generator: Sketch 56.2 (81672) - https://sketch.com -->
    <title>Solid/truck</title>
    <desc>Created with Sketch.</desc>
    <defs>
        <path d="M22.2,2.4 L10.2,2.4 C9.205875,2.4 8.4,3.205875 8.4,4.2 L8.4,6 L6.745575,6 C6.26818627,6.0000025 5.81035106,6.18964645 5.4727875,6.5272125 L1.7272125,10.2727875 C1.38964645,10.6103511 1.2000025,11.0681863 1.2,11.545575 L1.2,15.6 L0.9,15.6 C0.4029375,15.6 0,16.0029375 0,16.5 L0,17.1 C0,17.5970625 0.4029375,18 0.9,18 L2.4,18 C2.4,19.9882125 4.0117875,21.6 6,21.6 C7.9882125,21.6 9.6,19.9882125 9.6,18 L14.4,18 C14.4,19.9882125 16.0117875,21.6 18,21.6 C19.9882125,21.6 21.6,19.9882125 21.6,18 L23.1,18 C23.5970625,18 24,17.5970625 24,17.1 L24,4.2 C24,3.205875 23.194125,2.4 22.2,2.4 Z M6,19.8 C5.0074875,19.8 4.2,18.9925125 4.2,18 C4.2,17.0074875 5.0074875,16.2 6,16.2 C6.9925125,16.2 7.8,17.0074875 7.8,18 C7.8,18.9925125 6.9925125,19.8 6,19.8 Z M8.4,12 L3,12 L3,11.545575 L6.745575,7.8 L8.4,7.8 L8.4,12 Z M18,19.8 C17.0074875,19.8 16.2,18.9925125 16.2,18 C16.2,17.0074875 17.0074875,16.2 18,16.2 C18.9925125,16.2 19.8,17.0074875 19.8,18 C19.8,18.9925125 18.9925125,19.8 18,19.8 Z" id="path-1"></path>
    </defs>
    <g id="Comps-L" stroke="none" stroke-width="1" fill="none" fill-rule="evenodd">
        <g id="10-1_Sign-In-L" transform="translate(-974.000000, -388.000000)">
            <g id="SIGN-UP" transform="translate(565.000000, 306.000000)">
                <g id="PERKS" transform="translate(64.000000, 80.000000)">
                    <g id="Solid/truck" transform="translate(357.000000, 12.000000) scale(-1, 1) translate(-357.000000, -12.000000) translate(345.000000, 0.000000)">
                        <mask id="mask-2" fill="white">
                            <use xlink:href="#path-1"></use>
                        </mask>
                        <g id="Mask"></g>
                        <g id="Color/Black" mask="url(#mask-2)" fill="#000000" fill-rule="evenodd">
                            <rect id="Black" x="0" y="0" width="24" height="24"></rect>
                        </g>
                    </g>
                </g>
            </g>
        </g>
    </g>
</svg>