<svg width="20" height="20" viewBox="0 0 20 20" fill="none" xmlns="http://www.w3.org/2000/svg">
<path d="M0.610352 1H2.61035L3.01035 3M4.61035 11H14.6104L18.6104 3H3.01035M4.61035 11L3.01035 3M4.61035 11L2.31746 13.2929C1.68749 13.9229 2.13366 15 3.02457 15H14.6104M14.6104 15C13.5058 15 12.6104 15.8954 12.6104 17C12.6104 18.1046 13.5058 19 14.6104 19C15.7149 19 16.6104 18.1046 16.6104 17C16.6104 15.8954 15.7149 15 14.6104 15ZM6.61035 17C6.61035 18.1046 5.71492 19 4.61035 19C3.50578 19 2.61035 18.1046 2.61035 17C2.61035 15.8954 3.50578 15 4.61035 15C5.71492 15 6.61035 15.8954 6.61035 17Z" stroke="#111827" stroke-linecap="round" stroke-linejoin="round"/>
</svg>
