<svg version="1.1" id="Layer_1" xmlns="http://www.w3.org/2000/svg" xmlns:xlink="http://www.w3.org/1999/xlink" x="0px" y="0px" viewBox="0 0 387.5 102.3" style="enable-background:new 0 0 387.5 102.3;" xml:space="preserve"><style type="text/css">.st0{enable-background:new    ;}.st1{fill:#382757;}.st2{fill:url(#Path_10_);}.st3{fill:url(#Path_11_);}.st4{fill:url(#Path_12_);}.st5{fill:url(#Path_13_);}.st6{fill:url(#Path_14_);}.st7{fill:url(#Path_15_);}.st8{fill:url(#Path_16_);}.st9{fill:url(#Path_17_);}.st10{fill:url(#Path_18_);}.st11{fill:url(#Path_19_);}</style><title>Group</title><desc>Created with Sketch.</desc><g id="Page-1"><g id="Sezzle-Desktop-Modal" transform="translate(-521.000000, -366.000000)"><g id="Modal-Popup" transform="translate(298.000000, 97.000000)"><g id="Group" transform="translate(218.000000, 269.000000)"><g id="Payment-Pie-Graphic" transform="translate(29.000000, 0.000000)"><g id="NewBrand_FourPaymentPie" transform="translate(316.000000, 0.000000)"><linearGradient id="Path_10_" gradientUnits="userSpaceOnUse" x1="-878.4667" y1="7.1667" x2="-877.4667" y2="7.1667" gradientTransform="matrix(18 0 0 18 15812.2656 -100)"><stop offset="0" style="stop-color:#CE5DCB"></stop><stop offset="0.2095" style="stop-color:#C558CC"></stop><stop offset="0.5525" style="stop-color:#AC4ACF"></stop><stop offset="0.9845" style="stop-color:#8534D4"></stop><stop offset="1" style="stop-color:#8333D4"></stop></linearGradient><path id="Path" class="st2" d="M-0.1,20c0,9.9,8.1,18,18,18l0,0V20H-0.1z"></path><linearGradient id="Path_11_" gradientUnits="userSpaceOnUse" x1="-878.4667" y1="7.1667" x2="-877.4667" y2="7.1667" gradientTransform="matrix(18 0 0 18 15832.2656 -100)"><stop offset="2.370000e-02" style="stop-color:#FF5667"></stop><stop offset="0.6592" style="stop-color:#FC8B82"></stop><stop offset="1" style="stop-color:#FBA28E"></stop></linearGradient><path id="Path_1_" class="st3" d="M37.9,20c0,9.9-8.1,18-18,18l0,0V20H37.9z"></path><linearGradient id="Path_12_" gradientUnits="userSpaceOnUse" x1="-878.4667" y1="7.1667" x2="-877.4667" y2="7.1667" gradientTransform="matrix(18 0 0 18 15812.2676 -120)"><stop offset="0" style="stop-color:#FCD7B6"></stop><stop offset="0.5071" style="stop-color:#FEA500"></stop><stop offset="1" style="stop-color:#FF8100"></stop></linearGradient><path id="Path_2_" class="st4" d="M17.9,0C8,0-0.1,8.1-0.1,18l0,0h18V0z"></path><linearGradient id="Path_13_" gradientUnits="userSpaceOnUse" x1="-878.4667" y1="7.1667" x2="-877.4667" y2="7.1667" gradientTransform="matrix(18 0 0 18 15832.2656 -120)"><stop offset="0" style="stop-color:#00B874"></stop><stop offset="0.5126" style="stop-color:#29D3A2"></stop><stop offset="0.6817" style="stop-color:#53DFB6"></stop><stop offset="1" style="stop-color:#9FF4D9"></stop></linearGradient><path id="Path_3_" class="st5" d="M19.9,0c9.9,0,18,8.1,18,18l0,0h-18C19.9,18,19.9,0,19.9,0z"></path></g><g id="NewBrand_FourPaymentPie-Copy" transform="translate(207.000000, 0.000000)"><linearGradient id="Path_14_" gradientUnits="userSpaceOnUse" x1="-660.4667" y1="7.1667" x2="-659.4667" y2="7.1667" gradientTransform="matrix(18 0 0 18 11888.2656 -100)"><stop offset="0" style="stop-color:#CE5DCB"></stop><stop offset="0.2095" style="stop-color:#C558CC"></stop><stop offset="0.5525" style="stop-color:#AC4ACF"></stop><stop offset="0.9845" style="stop-color:#8534D4"></stop><stop offset="1" style="stop-color:#8333D4"></stop></linearGradient><path id="Path_4_" class="st6" d="M-0.1,20c0,9.9,8.1,18,18,18V20H-0.1z"></path><linearGradient id="Path_15_" gradientUnits="userSpaceOnUse" x1="-660.4667" y1="7.1667" x2="-659.4667" y2="7.1667" gradientTransform="matrix(18 0 0 18 11908.2656 -100)"><stop offset="2.370000e-02" style="stop-color:#FF5667"></stop><stop offset="0.6592" style="stop-color:#FC8B82"></stop><stop offset="1" style="stop-color:#FBA28E"></stop></linearGradient><path id="Path_5_" class="st7" d="M37.9,20c0,9.9-8.1,18-18,18l0,0V20H37.9z"></path><linearGradient id="Path_16_" gradientUnits="userSpaceOnUse" x1="-660.4667" y1="7.1667" x2="-659.4667" y2="7.1667" gradientTransform="matrix(18 0 0 18 11908.2656 -120)"><stop offset="0" style="stop-color:#00B874"></stop><stop offset="0.5126" style="stop-color:#29D3A2"></stop><stop offset="0.6817" style="stop-color:#53DFB6"></stop><stop offset="1" style="stop-color:#9FF4D9"></stop></linearGradient><path id="Path_6_" class="st8" d="M19.9,0c9.9,0,18,8.1,18,18l0,0h-18C19.9,18,19.9,0,19.9,0z"></path></g><g id="NewBrand_FourPaymentPie-Copy-2" transform="translate(113.000000, 0.000000)"><linearGradient id="Path_17_" gradientUnits="userSpaceOnUse" x1="-472.4667" y1="7.1667" x2="-471.4667" y2="7.1667" gradientTransform="matrix(18 0 0 18 8504.2656 -100)"><stop offset="2.370000e-02" style="stop-color:#FF5667"></stop><stop offset="0.6592" style="stop-color:#FC8B82"></stop><stop offset="1" style="stop-color:#FBA28E"></stop></linearGradient><path id="Path_7_" class="st9" d="M17.9,20c0,9.9-8.1,18-18,18l0,0V20H17.9z"></path><linearGradient id="Path_18_" gradientUnits="userSpaceOnUse" x1="-472.4667" y1="7.1667" x2="-471.4667" y2="7.1667" gradientTransform="matrix(18 0 0 18 8504.2656 -120)"><stop offset="0" style="stop-color:#00B874"></stop><stop offset="0.5126" style="stop-color:#29D3A2"></stop><stop offset="0.6817" style="stop-color:#53DFB6"></stop><stop offset="1" style="stop-color:#9FF4D9"></stop></linearGradient><path id="Path_8_" class="st10" d="M-0.1,0c9.9,0,18,8.1,18,18l0,0h-18C-0.1,18-0.1,0-0.1,0z"></path></g><g id="NewBrand_FourPaymentPie-Copy-3"><linearGradient id="Path_19_" gradientUnits="userSpaceOnUse" x1="-246.4667" y1="7.1667" x2="-245.4667" y2="7.1667" gradientTransform="matrix(18 0 0 18 4436.2661 -120)"><stop offset="0" style="stop-color:#00B874"></stop><stop offset="0.5126" style="stop-color:#29D3A2"></stop><stop offset="0.6817" style="stop-color:#53DFB6"></stop><stop offset="1" style="stop-color:#9FF4D9"></stop></linearGradient><path id="Path_9_" class="st11" d="M-0.1,0c9.9,0,18,8.1,18,18l0,0h-18C-0.1,18-0.1,0-0.1,0z"></path></g><g id="Line-2"><path class="st1" d="M83.6,20.2C83.6,20.2,83.6,20.2,83.6,20.2l-43.5-0.4c-0.6,0-1-0.5-1-1c0-0.5,0.5-1,1-1c0,0,0,0,0,0l43.5,0.4c0.6,0,1,0.5,1,1C84.6,19.8,84.1,20.2,83.6,20.2z"></path></g><g id="Line-2-Copy"><path class="st1" d="M189.6,20.2C189.6,20.2,189.6,20.2,189.6,20.2l-43.5-0.4c-0.6,0-1-0.5-1-1c0-0.5,0.5-1,1-1c0,0,0,0,0,0l43.5,0.4c0.6,0,1,0.5,1,1C190.6,19.8,190.1,20.2,189.6,20.2z"></path></g><g id="Line-2-Copy-2"><path class="st1" d="M303.6,20.2C303.6,20.2,303.6,20.2,303.6,20.2l-43.5-0.4c-0.6,0-1-0.5-1-1c0-0.5,0.5-1,1-1c0,0,0,0,0,0l43.5,0.4c0.6,0,1,0.5,1,1C304.6,19.8,304.1,20.2,303.6,20.2z"></path></g></g></g></g></g></g></svg>